/home/minht/3dpredictsim_tutorial/predsim_tutorial/Results/Case_13/GRF.mot
version=1
nRows=22
nColumns=19
inDegrees=yes
endheader 
time	r_ground_force_vx	r_ground_force_vy	r_ground_force_vz	r_ground_force_px	r_ground_force_py	r_ground_force_pz	l_ground_force_vx	l_ground_force_vy	l_ground_force_vz	l_ground_force_px	l_ground_force_py	l_ground_force_pz	r_ground_torque_x	r_ground_torque_y	r_ground_torque_z	l_ground_torque_x	l_ground_torque_y	l_ground_torque_z	
          0.50649296	         25.72420058	        886.60864185	         23.25675585	          0.00013475	          0.00000000	          0.00005773	          0.00000000	          0.00000000	          0.00000000	          0.00000000	          0.00000000	          0.00000000	          0.00000000	         -0.10652305	          0.00000000	          0.00000000	          0.00000000	          0.00000000	
          0.52184123	         29.71993417	        894.43771767	         23.87895957	          0.00012185	          0.00000000	          0.00004825	          0.00000000	          0.00000000	          0.00000000	          0.00000000	          0.00000000	          0.00000000	          0.00000000	         -0.09302372	          0.00000000	          0.00000000	          0.00000000	          0.00000000	
          0.53718950	         33.07222191	        901.44468999	         24.37115230	          0.00007341	          0.00000000	          0.00002732	          0.00000000	          0.00000000	          0.00000000	          0.00000000	          0.00000000	          0.00000000	          0.00000000	         -0.05474297	          0.00000000	          0.00000000	          0.00000000	          0.00000000	
          0.55253778	         35.86574550	        906.74959507	         24.78809166	          0.00002539	          0.00000000	          0.00000895	          0.00000000	          0.00000000	          0.00000000	          0.00000000	          0.00000000	          0.00000000	          0.00000000	         -0.01847339	          0.00000000	          0.00000000	          0.00000000	          0.00000000	
          0.56788605	         37.81549436	        909.58069866	         24.96489312	          0.00000542	          0.00000000	          0.00000181	          0.00000000	          0.00000000	          0.00000000	          0.00000000	          0.00000000	          0.00000000	          0.00000000	         -0.00376236	          0.00000000	          0.00000000	          0.00000000	          0.00000000	
          0.58323432	         39.55873749	        909.34693516	         24.78602737	          0.00000887	          0.00000000	          0.00000234	          0.00000000	          0.00000000	          0.00000000	          0.00000000	          0.00000000	          0.00000000	          0.00000000	         -0.00459367	          0.00000000	          0.00000000	          0.00000000	          0.00000000	
          0.59858259	         40.91767089	        905.82460223	         24.24806543	          0.00008877	          0.00000000	          0.00001872	          0.00000000	          0.00000000	          0.00000000	          0.00000000	          0.00000000	          0.00000000	          0.00000000	         -0.03549822	          0.00000000	          0.00000000	          0.00000000	          0.00000000	
          0.61393086	         42.12163775	        898.92974486	         22.74064665	          0.00049852	          0.00000000	          0.00009175	          0.00000000	          0.00000000	          0.00000000	          0.00000000	          0.00000000	          0.00000000	          0.00000000	         -0.17245298	          0.00000000	          0.00000000	          0.00000000	          0.00000000	
          0.62927913	         42.99853915	        889.12566352	         20.93897421	          0.00129305	          0.00000000	          0.00021309	          0.00000000	          0.00000000	          0.00000000	          0.00000000	          0.00000000	          0.00000000	          0.00000000	         -0.39951659	          0.00000000	          0.00000000	          0.00000000	          0.00000000	
          0.64462741	         43.66596362	        878.06739022	         19.04602118	          0.00195136	          0.00000000	          0.00029102	          0.00000000	          0.00000000	          0.00000000	          0.00000000	          0.00000000	          0.00000000	          0.00000000	         -0.54805460	          0.00000000	          0.00000000	          0.00000000	          0.00000000	
          0.65997568	         44.36959363	        867.68510952	         17.29388642	          0.00225597	          0.00000000	          0.00030653	          0.00000000	          0.00000000	          0.00000000	          0.00000000	          0.00000000	          0.00000000	          0.00000000	         -0.58922841	          0.00000000	          0.00000000	          0.00000000	          0.00000000	
          0.67532395	         45.35624980	        859.09407207	         15.84230614	          0.00237707	          0.00000000	          0.00029562	          0.00000000	          0.00000000	          0.00000000	          0.00000000	          0.00000000	          0.00000000	          0.00000000	         -0.59401634	          0.00000000	          0.00000000	          0.00000000	          0.00000000	
          0.69067222	         46.79326861	        852.74919308	         14.60510507	          0.00255239	          0.00000000	          0.00029136	          0.00000000	          0.00000000	          0.00000000	          0.00000000	          0.00000000	          0.00000000	          0.00000000	         -0.63103302	          0.00000000	          0.00000000	          0.00000000	          0.00000000	
          0.70602049	         48.65137485	        848.39419361	         13.59236867	          0.00305183	          0.00000000	          0.00032021	          0.00000000	          0.00000000	          0.00000000	          0.00000000	          0.00000000	          0.00000000	          0.00000000	         -0.77473369	          0.00000000	          0.00000000	          0.00000000	          0.00000000	
          0.72136876	         50.88159544	        844.91863162	         12.82922311	          0.00433131	          0.00000000	          0.00041790	          0.00000000	          0.00000000	          0.00000000	          0.00000000	          0.00000000	          0.00000000	          0.00000000	         -1.17940537	          0.00000000	          0.00000000	          0.00000000	          0.00000000	
          0.73671704	         53.01181289	        840.38850924	         12.22068172	          0.00798023	          0.00000000	          0.00070858	          0.00000000	          0.00000000	          0.00000000	          0.00000000	          0.00000000	          0.00000000	          0.00000000	         -2.46452754	          0.00000000	          0.00000000	          0.00000000	          0.00000000	
          0.75206531	         55.80149924	        830.20055926	         11.26437885	          0.02427164	          0.00000000	          0.00199469	        -34.94392269	         32.35012982	         12.54724223	          6.67824652	          0.00000000	         -2.31132929	          0.00000000	         -9.44212369	          0.00000000	          0.00000000	        -13.24832765	          0.00000000	
          0.76741358	         55.26678708	        806.65547598	          7.35050264	          0.07888107	          0.00000000	          0.00621983	        -41.84594274	        101.09703938	         72.43750002	          2.11212954	          0.00000000	         -0.72294958	          0.00000000	        -47.43241721	          0.00000000	          0.00000000	        107.31165591	          0.00000000	
          0.78276185	         53.69011744	        761.11790236	          1.68828929	          0.18291230	          0.00000000	          0.01350875	          6.86385683	        220.23950114	         35.91650843	          0.93360290	          0.00000000	         -0.31539686	          0.00000000	        -22.80107440	          0.00000000	          0.00000000	         22.72297839	          0.00000000	
          0.79811012	         50.44520636	        700.68427597	         -2.46687969	          0.30497073	          0.00000000	          0.02217722	         -0.51915922	        337.56040522	         27.61677816	          0.57500385	          0.00000000	         -0.19075739	          0.00000000	        -19.39450317	          0.00000000	          0.00000000	          5.44955080	          0.00000000	
          0.81345839	         42.64998628	        630.51752136	         -7.50935450	          0.44690771	          0.00000000	          0.03257007	        -16.27517709	        443.89644302	         27.54347186	          0.40630990	          0.00000000	         -0.13132696	          0.00000000	        -23.04142826	          0.00000000	          0.00000000	          1.77057303	          0.00000000	
          0.82880666	         33.63713326	        552.24841223	        -11.74196274	          0.64637382	          0.00000000	          0.04882313	        -34.86148803	        557.86413837	         26.70242902	          0.29486208	          0.00000000	         -0.09192549	          0.00000000	        -28.13722556	          0.00000000	          0.00000000	          0.32627364	          0.00000000	
